<svg xmlns="http://www.w3.org/2000/svg" xmlns:xlink="http://www.w3.org/1999/xlink" width="500" zoomAndPan="magnify" viewBox="0 0 375 374.999991" height="500" preserveAspectRatio="xMidYMid meet" version="1.2"><defs><clipPath id="5baa3863fa"><path d="M 36.054688 36.054688 L 338.945312 36.054688 L 338.945312 338.945312 L 36.054688 338.945312 Z M 36.054688 36.054688 "/></clipPath><clipPath id="7cc1837f90"><path d="M 187.5 36.054688 C 103.859375 36.054688 36.054688 103.859375 36.054688 187.5 C 36.054688 271.140625 103.859375 338.945312 187.5 338.945312 C 271.140625 338.945312 338.945312 271.140625 338.945312 187.5 C 338.945312 103.859375 271.140625 36.054688 187.5 36.054688 Z M 187.5 36.054688 "/></clipPath><clipPath id="fd029dd64b"><path d="M 131.539062 233 L 226 233 L 226 245.765625 L 131.539062 245.765625 Z M 131.539062 233 "/></clipPath><clipPath id="d0bbe012dc"><path d="M 131.539062 177 L 242 177 L 242 240 L 131.539062 240 Z M 131.539062 177 "/></clipPath><clipPath id="a456fccfff"><path d="M 172 118.265625 L 184 118.265625 L 184 172 L 172 172 Z M 172 118.265625 "/></clipPath><clipPath id="c2b19bd55b"><path d="M 59.871094 181.992188 L 71 181.992188 L 71 193 L 59.871094 193 Z M 59.871094 181.992188 "/></clipPath><clipPath id="4c1b279804"><path d="M 304.210938 181.992188 L 315.460938 181.992188 L 315.460938 193 L 304.210938 193 Z M 304.210938 181.992188 "/></clipPath></defs><g id="2981eaccd3"><rect x="0" width="375" y="0" height="374.999991" style="fill:#ffffff;fill-opacity:1;stroke:none;"/><rect x="0" width="375" y="0" height="374.999991" style="fill:#fff5e9;fill-opacity:1;stroke:none;"/><g clip-rule="nonzero" clip-path="url(#5baa3863fa)"><g clip-rule="nonzero" clip-path="url(#7cc1837f90)"><path style=" stroke:none;fill-rule:nonzero;fill:#ff6d4d;fill-opacity:1;" d="M 36.054688 36.054688 L 338.945312 36.054688 L 338.945312 338.945312 L 36.054688 338.945312 Z M 36.054688 36.054688 "/></g></g><g clip-rule="nonzero" clip-path="url(#fd029dd64b)"><path style=" stroke:none;fill-rule:nonzero;fill:#fefbed;fill-opacity:1;" d="M 225.078125 233.070312 C 225.078125 239.929688 204.148438 245.464844 178.320312 245.464844 C 152.492188 245.464844 131.539062 239.902344 131.539062 233.070312 "/></g><g clip-rule="nonzero" clip-path="url(#d0bbe012dc)"><path style=" stroke:none;fill-rule:nonzero;fill:#fefbed;fill-opacity:1;" d="M 237.472656 191.46875 C 234.167969 188.117188 229.320312 186.972656 224.417969 187.914062 C 224.847656 184.511719 225.078125 181.003906 225.078125 177.425781 L 131.539062 177.425781 C 131.539062 211.585938 152.464844 239.269531 178.292969 239.269531 C 191.984375 239.269531 204.300781 231.496094 212.835938 219.101562 C 218.878906 223.164062 228.148438 221.691406 234.726562 215.242188 C 242.066406 208.054688 243.289062 197.386719 237.472656 191.46875 Z M 236.429688 204.117188 C 236 207.925781 234.066406 211.660156 231.019531 214.65625 C 227.972656 217.65625 224.1875 219.507812 220.378906 219.863281 C 217.710938 220.117188 215.273438 219.609375 213.316406 218.417969 C 218.21875 211.101562 221.851562 202.210938 223.679688 192.410156 C 224.035156 192.359375 224.417969 192.308594 224.773438 192.257812 C 228.351562 191.925781 231.503906 192.941406 233.6875 195.152344 C 235.847656 197.363281 236.835938 200.5625 236.429688 204.117188 Z M 236.429688 204.117188 "/></g><g clip-rule="nonzero" clip-path="url(#a456fccfff)"><path style=" stroke:none;fill-rule:nonzero;fill:#fefbed;fill-opacity:1;" d="M 178.546875 118.703125 C 178.472656 118.550781 178.320312 118.5 178.191406 118.550781 C 178.066406 118.578125 177.9375 118.679688 177.835938 118.753906 C 177.734375 118.855469 177.632812 118.957031 177.582031 119.085938 C 177.558594 119.136719 177.53125 119.214844 177.507812 119.265625 L 177.429688 119.46875 C 177.203125 120.050781 177 120.636719 176.820312 121.21875 C 176.464844 122.386719 176.210938 123.554688 176.085938 124.722656 C 175.957031 125.867188 176.007812 127.011719 176.210938 128.050781 C 176.289062 128.304688 176.3125 128.558594 176.414062 128.8125 L 176.542969 129.195312 L 176.695312 129.550781 C 176.871094 130.03125 177.152344 130.488281 177.40625 130.945312 C 177.683594 131.402344 178.015625 131.859375 178.371094 132.34375 L 179.488281 133.792969 C 179.871094 134.300781 180.277344 134.832031 180.65625 135.390625 C 181.039062 135.976562 181.394531 136.558594 181.722656 137.167969 C 182.382812 138.414062 182.917969 139.734375 183.246094 141.15625 C 183.601562 142.578125 183.703125 144.128906 183.527344 145.625 C 183.425781 146.386719 183.273438 147.097656 183.09375 147.8125 C 182.890625 148.523438 182.636719 149.183594 182.382812 149.84375 C 181.824219 151.136719 181.164062 152.304688 180.480469 153.421875 C 179.792969 154.542969 179.105469 155.558594 178.445312 156.574219 C 178.117188 157.082031 177.8125 157.589844 177.507812 158.097656 C 177.203125 158.605469 176.921875 159.085938 176.695312 159.59375 C 176.441406 160.101562 176.210938 160.609375 176.035156 161.117188 C 175.855469 161.628906 175.703125 162.160156 175.578125 162.667969 C 175.375 163.710938 175.347656 164.800781 175.550781 165.894531 C 175.652344 166.425781 175.804688 166.960938 176.035156 167.46875 C 176.261719 167.976562 176.542969 168.460938 176.898438 168.890625 C 176.972656 169.019531 177.101562 169.09375 177.175781 169.195312 C 177.226562 169.246094 177.277344 169.296875 177.328125 169.347656 L 177.480469 169.476562 C 177.683594 169.652344 177.988281 169.855469 178.242188 170.109375 C 178.496094 170.363281 178.699219 170.617188 178.851562 170.949219 C 178.929688 171.101562 178.980469 171.304688 178.953125 171.480469 C 178.929688 171.660156 178.800781 171.8125 178.675781 171.886719 C 178.777344 171.761719 178.800781 171.609375 178.777344 171.480469 C 178.75 171.355469 178.675781 171.253906 178.574219 171.152344 C 178.371094 170.949219 178.117188 170.796875 177.863281 170.667969 C 177.582031 170.542969 177.355469 170.464844 177 170.339844 L 176.769531 170.238281 C 176.695312 170.210938 176.617188 170.160156 176.542969 170.109375 C 176.390625 170.035156 176.238281 169.957031 176.085938 169.855469 C 174.890625 169.09375 174.003906 167.898438 173.417969 166.605469 C 173.140625 165.945312 172.910156 165.257812 172.78125 164.574219 C 172.65625 163.863281 172.578125 163.152344 172.578125 162.414062 C 172.578125 161.679688 172.679688 160.992188 172.808594 160.28125 C 172.9375 159.59375 173.113281 158.910156 173.34375 158.25 C 173.773438 156.929688 174.332031 155.710938 174.941406 154.566406 C 175.527344 153.398438 176.160156 152.304688 176.71875 151.265625 C 177.835938 149.15625 178.777344 147.097656 179.003906 145.117188 C 179.234375 143.1875 178.75 141.105469 177.863281 139.074219 C 177.632812 138.566406 177.378906 138.058594 177.101562 137.574219 C 176.820312 137.09375 176.515625 136.585938 176.1875 136.050781 C 175.527344 135.011719 174.816406 133.867188 174.230469 132.570312 C 173.925781 131.910156 173.699219 131.226562 173.519531 130.488281 C 173.34375 129.777344 173.265625 129.042969 173.242188 128.304688 C 173.214844 126.859375 173.46875 125.460938 173.925781 124.191406 C 174.382812 122.921875 174.96875 121.726562 175.703125 120.636719 C 176.058594 120.101562 176.441406 119.570312 176.871094 119.085938 L 177.023438 118.90625 C 177.101562 118.832031 177.152344 118.753906 177.226562 118.703125 C 177.378906 118.578125 177.53125 118.5 177.683594 118.425781 C 177.835938 118.347656 178.039062 118.324219 178.21875 118.324219 C 178.320312 118.324219 178.394531 118.375 178.472656 118.425781 C 178.496094 118.550781 178.523438 118.628906 178.546875 118.703125 Z M 178.546875 118.703125 "/></g><path style=" stroke:none;fill-rule:nonzero;fill:#fefbed;fill-opacity:1;" d="M 192.441406 134.375 C 192.363281 134.273438 192.261719 134.273438 192.210938 134.300781 C 192.136719 134.324219 192.058594 134.402344 192.007812 134.453125 C 191.957031 134.527344 191.90625 134.605469 191.882812 134.679688 C 191.855469 134.707031 191.855469 134.757812 191.855469 134.78125 L 191.804688 134.933594 C 191.679688 135.339844 191.578125 135.722656 191.5 136.128906 C 191.324219 136.914062 191.222656 137.703125 191.195312 138.4375 C 191.171875 139.175781 191.246094 139.886719 191.425781 140.523438 C 191.527344 140.828125 191.628906 141.132812 191.753906 141.410156 C 191.882812 141.691406 192.058594 141.945312 192.238281 142.222656 C 192.414062 142.503906 192.644531 142.78125 192.871094 143.0625 L 193.632812 144 C 193.890625 144.332031 194.195312 144.6875 194.449219 145.09375 C 194.703125 145.472656 194.957031 145.878906 195.210938 146.3125 C 195.667969 147.175781 196.074219 148.089844 196.300781 149.105469 C 196.554688 150.121094 196.632812 151.214844 196.503906 152.332031 C 196.429688 152.863281 196.328125 153.398438 196.199219 153.90625 C 196.046875 154.414062 195.871094 154.871094 195.691406 155.328125 C 195.3125 156.21875 194.828125 157.03125 194.371094 157.765625 C 193.890625 158.503906 193.429688 159.1875 192.972656 159.824219 C 192.746094 160.152344 192.542969 160.457031 192.339844 160.789062 C 192.136719 161.09375 191.957031 161.398438 191.78125 161.730469 C 191.628906 162.035156 191.449219 162.339844 191.324219 162.667969 C 191.195312 162.972656 191.070312 163.304688 190.992188 163.609375 C 190.839844 164.21875 190.765625 164.902344 190.839844 165.5625 C 190.867188 165.894531 190.941406 166.222656 191.042969 166.554688 C 191.144531 166.882812 191.296875 167.1875 191.5 167.492188 C 191.550781 167.570312 191.601562 167.621094 191.652344 167.695312 C 191.703125 167.773438 191.78125 167.824219 191.832031 167.898438 C 191.933594 168.027344 192.160156 168.179688 192.3125 168.359375 C 192.464844 168.535156 192.617188 168.738281 192.695312 168.96875 C 192.746094 169.09375 192.769531 169.222656 192.746094 169.347656 C 192.71875 169.476562 192.617188 169.578125 192.515625 169.628906 C 192.566406 169.527344 192.59375 169.425781 192.542969 169.347656 C 192.515625 169.273438 192.464844 169.222656 192.390625 169.144531 C 192.238281 169.042969 192.085938 168.96875 191.90625 168.890625 C 191.730469 168.816406 191.578125 168.816406 191.324219 168.714844 C 191.195312 168.6875 191.09375 168.636719 190.992188 168.585938 C 190.890625 168.535156 190.765625 168.484375 190.664062 168.410156 C 189.800781 167.925781 189.113281 167.113281 188.683594 166.222656 C 188.453125 165.765625 188.300781 165.285156 188.175781 164.800781 C 188.046875 164.320312 187.996094 163.8125 187.996094 163.277344 C 187.996094 162.746094 188.046875 162.261719 188.125 161.78125 C 188.199219 161.296875 188.300781 160.8125 188.453125 160.355469 C 188.605469 159.898438 188.757812 159.46875 188.9375 159.035156 C 189.113281 158.605469 189.292969 158.199219 189.496094 157.816406 C 189.875 157.03125 190.28125 156.292969 190.636719 155.609375 C 191.347656 154.210938 191.882812 152.941406 192.007812 151.824219 C 192.136719 150.730469 191.882812 149.511719 191.347656 148.242188 C 191.070312 147.609375 190.765625 147.023438 190.359375 146.3125 C 189.953125 145.601562 189.46875 144.839844 189.089844 143.898438 C 188.886719 143.441406 188.734375 142.933594 188.632812 142.402344 C 188.503906 141.894531 188.480469 141.359375 188.480469 140.851562 C 188.503906 139.835938 188.707031 138.871094 189.0625 137.980469 C 189.417969 137.117188 189.875 136.332031 190.410156 135.621094 C 190.6875 135.265625 190.96875 134.933594 191.273438 134.628906 L 191.398438 134.503906 C 191.449219 134.453125 191.5 134.402344 191.550781 134.375 C 191.652344 134.300781 191.78125 134.25 191.882812 134.199219 C 192.007812 134.171875 192.136719 134.148438 192.261719 134.148438 C 192.339844 134.171875 192.390625 134.199219 192.441406 134.25 C 192.414062 134.273438 192.414062 134.324219 192.441406 134.375 Z M 192.441406 134.375 "/><path style=" stroke:none;fill-rule:nonzero;fill:#fefbed;fill-opacity:1;" d="M 164.097656 148.980469 C 164.046875 148.929688 163.996094 148.953125 163.96875 148.980469 C 163.945312 149.003906 163.917969 149.054688 163.894531 149.105469 C 163.867188 149.15625 163.867188 149.207031 163.84375 149.234375 C 163.84375 149.257812 163.84375 149.285156 163.84375 149.285156 C 163.84375 149.308594 163.84375 149.335938 163.84375 149.386719 C 163.816406 149.640625 163.792969 149.894531 163.765625 150.121094 C 163.742188 150.605469 163.742188 151.0625 163.792969 151.46875 C 163.84375 151.875 163.945312 152.230469 164.097656 152.507812 C 164.171875 152.636719 164.25 152.789062 164.324219 152.890625 C 164.402344 152.992188 164.503906 153.09375 164.605469 153.21875 C 164.832031 153.449219 165.113281 153.753906 165.441406 154.136719 C 165.773438 154.515625 166.179688 155.023438 166.484375 155.558594 C 166.789062 156.117188 167.070312 156.726562 167.246094 157.386719 C 167.425781 158.070312 167.476562 158.832031 167.398438 159.570312 C 167.347656 159.949219 167.273438 160.304688 167.195312 160.636719 C 167.09375 160.964844 166.96875 161.273438 166.839844 161.578125 C 166.585938 162.160156 166.28125 162.667969 165.976562 163.101562 C 165.367188 163.988281 164.808594 164.625 164.375 165.234375 C 163.945312 165.84375 163.640625 166.324219 163.5625 167.0625 C 163.539062 167.238281 163.539062 167.417969 163.5625 167.59375 C 163.589844 167.773438 163.613281 167.949219 163.691406 168.128906 C 163.714844 168.207031 163.765625 168.308594 163.816406 168.410156 C 163.84375 168.484375 163.996094 168.613281 164.070312 168.738281 C 164.148438 168.867188 164.25 169.019531 164.273438 169.171875 C 164.300781 169.246094 164.300781 169.347656 164.273438 169.449219 C 164.25 169.550781 164.171875 169.601562 164.097656 169.601562 C 164.121094 169.527344 164.121094 169.476562 164.070312 169.449219 C 164.046875 169.425781 163.996094 169.398438 163.945312 169.375 C 163.84375 169.347656 163.742188 169.324219 163.640625 169.296875 C 163.539062 169.273438 163.460938 169.296875 163.285156 169.246094 C 163.132812 169.222656 162.980469 169.144531 162.828125 169.09375 C 162.21875 168.839844 161.734375 168.332031 161.40625 167.746094 C 161.074219 167.164062 160.871094 166.527344 160.820312 165.816406 C 160.796875 165.460938 160.820312 165.132812 160.847656 164.828125 C 160.871094 164.496094 160.949219 164.191406 161.023438 163.886719 C 161.328125 162.695312 161.835938 161.703125 162.191406 160.914062 C 162.574219 160.128906 162.800781 159.46875 162.828125 159.035156 C 162.851562 158.832031 162.851562 158.605469 162.800781 158.351562 C 162.777344 158.097656 162.675781 157.792969 162.574219 157.460938 C 162.523438 157.308594 162.445312 157.132812 162.371094 156.953125 C 162.292969 156.800781 162.21875 156.597656 162.089844 156.394531 C 161.886719 155.964844 161.609375 155.480469 161.378906 154.847656 C 161.277344 154.542969 161.175781 154.1875 161.101562 153.828125 C 161.050781 153.472656 161.023438 153.117188 161.050781 152.789062 C 161.101562 152.101562 161.304688 151.492188 161.558594 150.960938 C 161.835938 150.425781 162.167969 149.96875 162.574219 149.5625 C 162.777344 149.359375 162.980469 149.183594 163.183594 149.03125 C 163.207031 149.003906 163.234375 149.003906 163.257812 148.953125 C 163.308594 148.929688 163.335938 148.902344 163.386719 148.878906 C 163.460938 148.828125 163.539062 148.800781 163.613281 148.777344 C 163.691406 148.75 163.792969 148.75 163.867188 148.777344 C 164.070312 148.800781 164.121094 148.902344 164.097656 148.980469 Z M 164.097656 148.980469 "/><g clip-rule="nonzero" clip-path="url(#c2b19bd55b)"><path style=" stroke:none;fill-rule:nonzero;fill:#fff5e9;fill-opacity:1;" d="M 70.875 187.496094 C 70.875 187.855469 70.839844 188.214844 70.769531 188.566406 C 70.695312 188.921875 70.59375 189.265625 70.453125 189.601562 C 70.316406 189.933594 70.148438 190.25 69.945312 190.550781 C 69.746094 190.851562 69.515625 191.128906 69.261719 191.386719 C 69.007812 191.640625 68.726562 191.867188 68.429688 192.070312 C 68.128906 192.269531 67.8125 192.441406 67.476562 192.578125 C 67.144531 192.714844 66.800781 192.820312 66.445312 192.890625 C 66.089844 192.960938 65.734375 192.996094 65.371094 192.996094 C 65.011719 192.996094 64.652344 192.960938 64.296875 192.890625 C 63.945312 192.820312 63.601562 192.714844 63.265625 192.578125 C 62.933594 192.441406 62.613281 192.269531 62.316406 192.070312 C 62.015625 191.867188 61.738281 191.640625 61.480469 191.386719 C 61.226562 191.128906 60.996094 190.851562 60.796875 190.550781 C 60.597656 190.25 60.425781 189.933594 60.289062 189.601562 C 60.148438 189.265625 60.046875 188.921875 59.976562 188.566406 C 59.90625 188.214844 59.871094 187.855469 59.871094 187.496094 C 59.871094 187.132812 59.90625 186.777344 59.976562 186.421875 C 60.046875 186.066406 60.148438 185.722656 60.289062 185.390625 C 60.425781 185.054688 60.597656 184.738281 60.796875 184.4375 C 60.996094 184.136719 61.226562 183.859375 61.480469 183.605469 C 61.738281 183.347656 62.015625 183.121094 62.316406 182.921875 C 62.613281 182.71875 62.933594 182.550781 63.265625 182.410156 C 63.601562 182.273438 63.945312 182.167969 64.296875 182.097656 C 64.652344 182.027344 65.011719 181.992188 65.371094 181.992188 C 65.734375 181.992188 66.089844 182.027344 66.445312 182.097656 C 66.800781 182.167969 67.144531 182.273438 67.476562 182.410156 C 67.8125 182.550781 68.128906 182.71875 68.429688 182.921875 C 68.726562 183.121094 69.007812 183.347656 69.261719 183.605469 C 69.515625 183.859375 69.746094 184.136719 69.945312 184.4375 C 70.148438 184.738281 70.316406 185.054688 70.453125 185.390625 C 70.59375 185.722656 70.695312 186.066406 70.769531 186.421875 C 70.839844 186.777344 70.875 187.132812 70.875 187.496094 Z M 70.875 187.496094 "/></g><g style="fill:#fefbed;fill-opacity:1;"><g transform="translate(79.522942, 153.355581)"><path style="stroke:none" d="M 5.171875 -9.796875 C 4.316406 -8.085938 3.203125 -6.796875 1.828125 -5.921875 C 0.453125 -5.046875 -1.097656 -4.617188 -2.828125 -4.640625 C -4.566406 -4.671875 -6.382812 -5.160156 -8.28125 -6.109375 C -10.164062 -7.054688 -11.632812 -8.21875 -12.6875 -9.59375 C -13.75 -10.96875 -14.332031 -12.46875 -14.4375 -14.09375 C -14.550781 -15.71875 -14.179688 -17.382812 -13.328125 -19.09375 C -12.742188 -20.238281 -12.007812 -21.222656 -11.125 -22.046875 C -10.25 -22.878906 -9.285156 -23.507812 -8.234375 -23.9375 C -7.835938 -24.070312 -7.472656 -24.054688 -7.140625 -23.890625 C -6.890625 -23.765625 -6.707031 -23.585938 -6.59375 -23.359375 C -6.488281 -23.140625 -6.484375 -22.9375 -6.578125 -22.75 C -6.679688 -22.539062 -6.894531 -22.335938 -7.21875 -22.140625 C -8.351562 -21.609375 -9.234375 -21.054688 -9.859375 -20.484375 C -10.492188 -19.910156 -11.039062 -19.160156 -11.5 -18.234375 C -12.5 -16.253906 -12.617188 -14.40625 -11.859375 -12.6875 C -11.109375 -10.96875 -9.546875 -9.507812 -7.171875 -8.3125 C -4.765625 -7.101562 -2.648438 -6.710938 -0.828125 -7.140625 C 0.992188 -7.566406 2.40625 -8.769531 3.40625 -10.75 C 3.863281 -11.664062 4.132812 -12.550781 4.21875 -13.40625 C 4.300781 -14.257812 4.222656 -15.289062 3.984375 -16.5 C 3.929688 -16.894531 3.957031 -17.195312 4.0625 -17.40625 C 4.15625 -17.59375 4.320312 -17.707031 4.5625 -17.75 C 4.800781 -17.800781 5.050781 -17.765625 5.3125 -17.640625 C 5.664062 -17.460938 5.898438 -17.175781 6.015625 -16.78125 C 6.328125 -15.675781 6.410156 -14.519531 6.265625 -13.3125 C 6.117188 -12.113281 5.753906 -10.941406 5.171875 -9.796875 Z M 5.171875 -9.796875 "/></g></g><g style="fill:#fefbed;fill-opacity:1;"><g transform="translate(90.641844, 132.021917)"><path style="stroke:none" d="M 7.109375 -8.375 C 5.921875 -6.914062 4.5625 -5.910156 3.03125 -5.359375 C 1.5 -4.816406 -0.0976562 -4.742188 -1.765625 -5.140625 C -3.441406 -5.546875 -5.097656 -6.410156 -6.734375 -7.734375 C -8.378906 -9.078125 -9.578125 -10.523438 -10.328125 -12.078125 C -11.078125 -13.640625 -11.332031 -15.21875 -11.09375 -16.8125 C -10.863281 -18.40625 -10.148438 -19.941406 -8.953125 -21.421875 C -7.753906 -22.890625 -6.394531 -23.898438 -4.875 -24.453125 C -3.363281 -25.015625 -1.769531 -25.085938 -0.09375 -24.671875 C 1.582031 -24.253906 3.234375 -23.378906 4.859375 -22.046875 C 6.492188 -20.722656 7.679688 -19.28125 8.421875 -17.71875 C 9.171875 -16.164062 9.429688 -14.582031 9.203125 -12.96875 C 8.984375 -11.351562 8.285156 -9.820312 7.109375 -8.375 Z M 5.546875 -9.640625 C 6.898438 -11.304688 7.394531 -13.054688 7.03125 -14.890625 C 6.664062 -16.734375 5.4375 -18.5 3.34375 -20.1875 C 1.269531 -21.882812 -0.695312 -22.722656 -2.5625 -22.703125 C -4.425781 -22.691406 -6.039062 -21.847656 -7.40625 -20.171875 C -8.757812 -18.503906 -9.25 -16.75 -8.875 -14.90625 C -8.507812 -13.0625 -7.300781 -11.300781 -5.25 -9.625 C -3.175781 -7.945312 -1.195312 -7.113281 0.6875 -7.125 C 2.570312 -7.132812 4.191406 -7.972656 5.546875 -9.640625 Z M 5.546875 -9.640625 "/></g></g><g style="fill:#fefbed;fill-opacity:1;"><g transform="translate(108.036946, 111.861766)"><path style="stroke:none" d="M 2.9375 -2.21875 C 2.65625 -1.976562 2.363281 -1.878906 2.0625 -1.921875 C 1.757812 -1.960938 1.492188 -2.125 1.265625 -2.40625 L -10.140625 -16.375 C -10.359375 -16.632812 -10.453125 -16.914062 -10.421875 -17.21875 C -10.390625 -17.53125 -10.226562 -17.800781 -9.9375 -18.03125 L -1.84375 -24.640625 C -1.582031 -24.859375 -1.320312 -24.957031 -1.0625 -24.9375 C -0.800781 -24.925781 -0.5625 -24.796875 -0.34375 -24.546875 C -0.15625 -24.304688 -0.0820312 -24.0625 -0.125 -23.8125 C -0.164062 -23.5625 -0.316406 -23.328125 -0.578125 -23.109375 L -7.8125 -17.203125 L -3.40625 -11.78125 L 3.375 -17.328125 C 3.644531 -17.535156 3.90625 -17.632812 4.15625 -17.625 C 4.414062 -17.625 4.648438 -17.5 4.859375 -17.25 C 5.046875 -17.007812 5.117188 -16.757812 5.078125 -16.5 C 5.046875 -16.25 4.894531 -16.019531 4.625 -15.8125 L -2.15625 -10.265625 L 3.0625 -3.875 C 3.289062 -3.59375 3.394531 -3.300781 3.375 -3 C 3.363281 -2.707031 3.21875 -2.445312 2.9375 -2.21875 Z M 2.9375 -2.21875 "/></g></g><g style="fill:#fefbed;fill-opacity:1;"><g transform="translate(124.501367, 98.989133)"><path style="stroke:none" d="M 3.28125 -1.65625 C 2.957031 -1.476562 2.648438 -1.429688 2.359375 -1.515625 C 2.078125 -1.609375 1.847656 -1.816406 1.671875 -2.140625 L -7.046875 -17.90625 C -7.210938 -18.207031 -7.25 -18.503906 -7.15625 -18.796875 C -7.070312 -19.097656 -6.875 -19.335938 -6.5625 -19.515625 L 2.59375 -24.5625 C 2.894531 -24.726562 3.171875 -24.78125 3.421875 -24.71875 C 3.671875 -24.664062 3.878906 -24.492188 4.046875 -24.203125 C 4.191406 -23.941406 4.21875 -23.6875 4.125 -23.4375 C 4.039062 -23.195312 3.847656 -22.992188 3.546875 -22.828125 L -4.625 -18.3125 L -1.234375 -12.203125 L 6.4375 -16.4375 C 6.726562 -16.601562 7 -16.65625 7.25 -16.59375 C 7.507812 -16.539062 7.71875 -16.375 7.875 -16.09375 C 8.019531 -15.820312 8.046875 -15.566406 7.953125 -15.328125 C 7.867188 -15.085938 7.679688 -14.882812 7.390625 -14.71875 L -0.28125 -10.484375 L 3.703125 -3.265625 C 3.878906 -2.941406 3.929688 -2.632812 3.859375 -2.34375 C 3.785156 -2.0625 3.59375 -1.832031 3.28125 -1.65625 Z M 3.28125 -1.65625 "/></g></g><g style="fill:#fefbed;fill-opacity:1;"><g transform="translate(142.97018, 89.252253)"><path style="stroke:none" d="M 3.515625 -1.171875 C 3.171875 -1.054688 2.859375 -1.0625 2.578125 -1.1875 C 2.304688 -1.320312 2.117188 -1.554688 2.015625 -1.890625 L -3.671875 -18.90625 C -3.785156 -19.226562 -3.769531 -19.523438 -3.625 -19.796875 C -3.488281 -20.066406 -3.25 -20.257812 -2.90625 -20.375 L 7.28125 -23.78125 C 7.613281 -23.882812 7.894531 -23.882812 8.125 -23.78125 C 8.363281 -23.6875 8.53125 -23.488281 8.625 -23.1875 C 8.726562 -22.90625 8.71875 -22.648438 8.59375 -22.421875 C 8.46875 -22.203125 8.238281 -22.039062 7.90625 -21.9375 L -1.21875 -18.890625 L 1.015625 -12.203125 L 9.59375 -15.0625 C 9.925781 -15.175781 10.207031 -15.179688 10.4375 -15.078125 C 10.675781 -14.972656 10.847656 -14.773438 10.953125 -14.484375 C 11.046875 -14.203125 11.023438 -13.945312 10.890625 -13.71875 C 10.765625 -13.5 10.535156 -13.332031 10.203125 -13.21875 L 1.625 -10.359375 L 3.953125 -3.390625 L 13.078125 -6.4375 C 13.410156 -6.539062 13.691406 -6.546875 13.921875 -6.453125 C 14.148438 -6.359375 14.316406 -6.15625 14.421875 -5.84375 C 14.523438 -5.550781 14.515625 -5.289062 14.390625 -5.0625 C 14.265625 -4.84375 14.035156 -4.679688 13.703125 -4.578125 Z M 3.515625 -1.171875 "/></g></g><g style="fill:#fefbed;fill-opacity:1;"><g transform="translate(163.567803, 82.848328)"><path style="stroke:none" d="M 3.671875 -0.5 C 3.304688 -0.457031 3.003906 -0.523438 2.765625 -0.703125 C 2.523438 -0.878906 2.378906 -1.140625 2.328125 -1.484375 L -0.125 -19.265625 C -0.164062 -19.597656 -0.0976562 -19.882812 0.078125 -20.125 C 0.265625 -20.375 0.539062 -20.519531 0.90625 -20.5625 L 11.546875 -22.03125 C 11.890625 -22.082031 12.164062 -22.035156 12.375 -21.890625 C 12.59375 -21.742188 12.722656 -21.515625 12.765625 -21.203125 C 12.804688 -20.910156 12.742188 -20.664062 12.578125 -20.46875 C 12.410156 -20.269531 12.15625 -20.144531 11.8125 -20.09375 L 2.28125 -18.78125 L 3.25 -11.796875 L 12.21875 -13.03125 C 12.550781 -13.082031 12.820312 -13.035156 13.03125 -12.890625 C 13.25 -12.753906 13.378906 -12.535156 13.421875 -12.234375 C 13.460938 -11.929688 13.398438 -11.679688 13.234375 -11.484375 C 13.066406 -11.285156 12.816406 -11.160156 12.484375 -11.109375 L 3.515625 -9.875 L 4.515625 -2.59375 L 14.046875 -3.90625 C 14.390625 -3.957031 14.664062 -3.914062 14.875 -3.78125 C 15.082031 -3.644531 15.210938 -3.410156 15.265625 -3.078125 C 15.296875 -2.785156 15.226562 -2.539062 15.0625 -2.34375 C 14.90625 -2.144531 14.65625 -2.019531 14.3125 -1.96875 Z M 3.671875 -0.5 "/></g></g><g style="fill:#fefbed;fill-opacity:1;"><g transform="translate(185.313252, 80.586901)"><path style="stroke:none" d=""/></g></g><g style="fill:#fefbed;fill-opacity:1;"><g transform="translate(197.761761, 80.539004)"><path style="stroke:none" d="M 10.75 2.203125 C 8.90625 1.867188 7.375 1.160156 6.15625 0.078125 C 4.9375 -1.003906 4.097656 -2.375 3.640625 -4.03125 C 3.191406 -5.695312 3.15625 -7.5625 3.53125 -9.625 C 3.914062 -11.71875 4.613281 -13.460938 5.625 -14.859375 C 6.632812 -16.265625 7.894531 -17.253906 9.40625 -17.828125 C 10.914062 -18.398438 12.601562 -18.515625 14.46875 -18.171875 C 16.332031 -17.828125 17.875 -17.117188 19.09375 -16.046875 C 20.3125 -14.984375 21.140625 -13.617188 21.578125 -11.953125 C 22.023438 -10.285156 22.0625 -8.414062 21.6875 -6.34375 C 21.300781 -4.28125 20.597656 -2.546875 19.578125 -1.140625 C 18.566406 0.253906 17.300781 1.242188 15.78125 1.828125 C 14.269531 2.410156 12.59375 2.535156 10.75 2.203125 Z M 11.109375 0.21875 C 13.210938 0.601562 14.984375 0.191406 16.421875 -1.015625 C 17.859375 -2.222656 18.820312 -4.144531 19.3125 -6.78125 C 19.789062 -9.414062 19.570312 -11.546875 18.65625 -13.171875 C 17.75 -14.804688 16.234375 -15.816406 14.109375 -16.203125 C 11.992188 -16.585938 10.21875 -16.171875 8.78125 -14.953125 C 7.351562 -13.742188 6.40625 -11.832031 5.9375 -9.21875 C 5.457031 -6.601562 5.671875 -4.472656 6.578125 -2.828125 C 7.484375 -1.179688 8.992188 -0.164062 11.109375 0.21875 Z M 11.109375 0.21875 "/></g></g><g style="fill:#fefbed;fill-opacity:1;"><g transform="translate(223.710134, 85.834247)"><path style="stroke:none" d="M 24.25 -11.78125 C 24.5625 -11.644531 24.757812 -11.441406 24.84375 -11.171875 C 24.9375 -10.898438 24.910156 -10.597656 24.765625 -10.265625 L 17.625 6.40625 C 17.476562 6.738281 17.269531 6.960938 17 7.078125 C 16.726562 7.203125 16.425781 7.191406 16.09375 7.046875 C 15.757812 6.898438 15.535156 6.628906 15.421875 6.234375 L 10.75 -13.109375 L 4.75 0.890625 C 4.601562 1.222656 4.394531 1.445312 4.125 1.5625 C 3.851562 1.6875 3.554688 1.679688 3.234375 1.546875 C 2.921875 1.410156 2.71875 1.203125 2.625 0.921875 C 2.539062 0.648438 2.570312 0.347656 2.71875 0.015625 L 9.859375 -16.65625 C 10.003906 -16.988281 10.210938 -17.210938 10.484375 -17.328125 C 10.753906 -17.453125 11.050781 -17.441406 11.375 -17.296875 C 11.726562 -17.148438 11.96875 -16.875 12.09375 -16.46875 L 16.75 2.859375 L 22.75 -11.140625 C 22.894531 -11.472656 23.097656 -11.695312 23.359375 -11.8125 C 23.617188 -11.9375 23.914062 -11.925781 24.25 -11.78125 Z M 24.25 -11.78125 "/></g></g><g style="fill:#fefbed;fill-opacity:1;"><g transform="translate(247.254297, 96.746614)"><path style="stroke:none" d="M 3 2.0625 C 2.726562 1.882812 2.5625 1.648438 2.5 1.359375 C 2.4375 1.066406 2.5 0.785156 2.6875 0.515625 L 12.953125 -14.375 C 13.160156 -14.675781 13.410156 -14.851562 13.703125 -14.90625 C 14.003906 -14.96875 14.300781 -14.898438 14.59375 -14.703125 C 14.894531 -14.492188 15.070312 -14.238281 15.125 -13.9375 C 15.175781 -13.632812 15.097656 -13.332031 14.890625 -13.03125 L 5.140625 1.109375 L 12.765625 6.359375 C 13.046875 6.554688 13.21875 6.78125 13.28125 7.03125 C 13.34375 7.28125 13.28125 7.539062 13.09375 7.8125 C 12.914062 8.082031 12.695312 8.234375 12.4375 8.265625 C 12.175781 8.296875 11.90625 8.210938 11.625 8.015625 Z M 3 2.0625 "/></g></g><g style="fill:#fefbed;fill-opacity:1;"><g transform="translate(263.911643, 109.042083)"><path style="stroke:none" d="M 2.59375 2.609375 C 2.332031 2.359375 2.195312 2.082031 2.1875 1.78125 C 2.175781 1.476562 2.296875 1.191406 2.546875 0.921875 L 14.859375 -12.375 C 15.109375 -12.644531 15.382812 -12.789062 15.6875 -12.8125 C 15.988281 -12.832031 16.269531 -12.71875 16.53125 -12.46875 C 16.800781 -12.226562 16.941406 -11.953125 16.953125 -11.640625 C 16.960938 -11.335938 16.84375 -11.050781 16.59375 -10.78125 L 4.28125 2.515625 C 4.03125 2.785156 3.753906 2.925781 3.453125 2.9375 C 3.148438 2.957031 2.863281 2.847656 2.59375 2.609375 Z M 2.59375 2.609375 "/></g></g><g style="fill:#fefbed;fill-opacity:1;"><g transform="translate(273.127741, 117.354746)"><path style="stroke:none" d="M 26.921875 1.484375 C 27.140625 1.753906 27.21875 2.03125 27.15625 2.3125 C 27.09375 2.601562 26.921875 2.859375 26.640625 3.078125 L 12.296875 14.15625 C 12.003906 14.382812 11.707031 14.488281 11.40625 14.46875 C 11.113281 14.445312 10.859375 14.289062 10.640625 14 C 10.410156 13.707031 10.34375 13.359375 10.4375 12.953125 L 15.75 -6.234375 L 3.71875 3.0625 C 3.425781 3.289062 3.132812 3.394531 2.84375 3.375 C 2.550781 3.351562 2.300781 3.207031 2.09375 2.9375 C 1.875 2.664062 1.789062 2.382812 1.84375 2.09375 C 1.90625 1.8125 2.082031 1.554688 2.375 1.328125 L 16.71875 -9.75 C 17 -9.96875 17.289062 -10.066406 17.59375 -10.046875 C 17.894531 -10.023438 18.148438 -9.875 18.359375 -9.59375 C 18.597656 -9.28125 18.671875 -8.921875 18.578125 -8.515625 L 13.234375 10.640625 L 25.28125 1.328125 C 25.5625 1.109375 25.851562 1.007812 26.15625 1.03125 C 26.457031 1.050781 26.710938 1.203125 26.921875 1.484375 Z M 26.921875 1.484375 "/></g></g><g style="fill:#fefbed;fill-opacity:1;"><g transform="translate(288.406031, 138.289012)"><path style="stroke:none" d="M 1.625 3.328125 C 1.46875 2.992188 1.429688 2.679688 1.515625 2.390625 C 1.609375 2.109375 1.8125 1.894531 2.125 1.75 L 18.25 -6.125 C 18.5625 -6.28125 18.859375 -6.304688 19.140625 -6.203125 C 19.429688 -6.109375 19.65625 -5.894531 19.8125 -5.5625 L 24.53125 4.09375 C 24.675781 4.40625 24.710938 4.679688 24.640625 4.921875 C 24.578125 5.171875 24.40625 5.363281 24.125 5.5 C 23.851562 5.632812 23.597656 5.65625 23.359375 5.5625 C 23.117188 5.46875 22.925781 5.265625 22.78125 4.953125 L 18.5625 -3.6875 L 12.234375 -0.59375 L 16.203125 7.53125 C 16.347656 7.84375 16.382812 8.117188 16.3125 8.359375 C 16.238281 8.609375 16.066406 8.800781 15.796875 8.9375 C 15.523438 9.070312 15.269531 9.085938 15.03125 8.984375 C 14.800781 8.890625 14.613281 8.6875 14.46875 8.375 L 10.5 0.25 L 3.875 3.484375 L 8.09375 12.125 C 8.238281 12.4375 8.28125 12.710938 8.21875 12.953125 C 8.15625 13.191406 7.976562 13.382812 7.6875 13.53125 C 7.414062 13.664062 7.160156 13.6875 6.921875 13.59375 C 6.679688 13.5 6.488281 13.296875 6.34375 12.984375 Z M 1.625 3.328125 "/></g></g><g style="fill:#fefbed;fill-opacity:1;"><g transform="translate(151.205589, 291.188798)"><path style="stroke:none" d="M 1 0 L 1 -7.75 L 5.78125 -7.75 L 5.78125 -7.171875 L 1.671875 -7.171875 L 1.671875 -4.234375 L 5.5625 -4.234375 L 5.5625 -3.640625 L 1.671875 -3.640625 L 1.671875 -0.578125 L 5.78125 -0.578125 L 5.78125 0 Z M 1 0 "/></g></g><g style="fill:#fefbed;fill-opacity:1;"><g transform="translate(159.649074, 291.188798)"><path style="stroke:none" d="M 3.40625 0.09375 C 2.800781 0.09375 2.265625 0.0078125 1.796875 -0.15625 C 1.328125 -0.320312 0.90625 -0.578125 0.53125 -0.921875 L 0.828125 -1.46875 C 1.210938 -1.125 1.597656 -0.878906 1.984375 -0.734375 C 2.378906 -0.585938 2.851562 -0.515625 3.40625 -0.515625 C 4.0625 -0.515625 4.570312 -0.644531 4.9375 -0.90625 C 5.300781 -1.175781 5.484375 -1.554688 5.484375 -2.046875 C 5.484375 -2.328125 5.394531 -2.554688 5.21875 -2.734375 C 5.039062 -2.921875 4.816406 -3.0625 4.546875 -3.15625 C 4.273438 -3.257812 3.910156 -3.363281 3.453125 -3.46875 C 2.847656 -3.59375 2.359375 -3.722656 1.984375 -3.859375 C 1.617188 -4.003906 1.304688 -4.21875 1.046875 -4.5 C 0.796875 -4.78125 0.671875 -5.160156 0.671875 -5.640625 C 0.671875 -6.078125 0.785156 -6.460938 1.015625 -6.796875 C 1.242188 -7.128906 1.5625 -7.382812 1.96875 -7.5625 C 2.382812 -7.75 2.875 -7.84375 3.4375 -7.84375 C 3.957031 -7.84375 4.441406 -7.753906 4.890625 -7.578125 C 5.347656 -7.410156 5.742188 -7.160156 6.078125 -6.828125 L 5.78125 -6.296875 C 5.414062 -6.617188 5.046875 -6.851562 4.671875 -7 C 4.296875 -7.15625 3.882812 -7.234375 3.4375 -7.234375 C 2.78125 -7.234375 2.269531 -7.09375 1.90625 -6.8125 C 1.539062 -6.539062 1.359375 -6.15625 1.359375 -5.65625 C 1.359375 -5.21875 1.515625 -4.894531 1.828125 -4.6875 C 2.148438 -4.476562 2.617188 -4.300781 3.234375 -4.15625 L 3.515625 -4.09375 C 4.109375 -3.945312 4.578125 -3.8125 4.921875 -3.6875 C 5.265625 -3.5625 5.554688 -3.367188 5.796875 -3.109375 C 6.035156 -2.847656 6.15625 -2.5 6.15625 -2.0625 C 6.15625 -1.632812 6.039062 -1.257812 5.8125 -0.9375 C 5.59375 -0.613281 5.273438 -0.359375 4.859375 -0.171875 C 4.441406 0.00390625 3.957031 0.09375 3.40625 0.09375 Z M 3.40625 0.09375 "/></g></g><g style="fill:#fefbed;fill-opacity:1;"><g transform="translate(168.400336, 291.188798)"><path style="stroke:none" d="M 2.921875 0 L 2.921875 -7.15625 L 0.125 -7.15625 L 0.125 -7.75 L 6.359375 -7.75 L 6.359375 -7.15625 L 3.59375 -7.15625 L 3.59375 0 Z M 2.921875 0 "/></g></g><g style="fill:#fefbed;fill-opacity:1;"><g transform="translate(176.964728, 291.188798)"><path style="stroke:none" d="M 0.75 -0.953125 L 1.6875 -0.953125 L 1.6875 0 L 0.75 0 Z M 0.75 -0.953125 "/></g></g><g style="fill:#fefbed;fill-opacity:1;"><g transform="translate(181.461992, 291.188798)"><path style="stroke:none" d=""/></g></g><g style="fill:#fefbed;fill-opacity:1;"><g transform="translate(186.311014, 291.188798)"><path style="stroke:none" d="M 5.890625 -0.59375 L 5.890625 0 L 0.984375 0 L 0.984375 -0.5 L 3.75 -3.59375 C 4.132812 -4.03125 4.414062 -4.421875 4.59375 -4.765625 C 4.769531 -5.117188 4.859375 -5.46875 4.859375 -5.8125 C 4.859375 -6.269531 4.722656 -6.625 4.453125 -6.875 C 4.191406 -7.125 3.816406 -7.25 3.328125 -7.25 C 2.546875 -7.25 1.800781 -6.9375 1.09375 -6.3125 L 0.796875 -6.859375 C 1.109375 -7.148438 1.492188 -7.382812 1.953125 -7.5625 C 2.410156 -7.75 2.867188 -7.84375 3.328125 -7.84375 C 4.015625 -7.84375 4.554688 -7.664062 4.953125 -7.3125 C 5.347656 -6.957031 5.546875 -6.46875 5.546875 -5.84375 C 5.546875 -5.394531 5.441406 -4.960938 5.234375 -4.546875 C 5.023438 -4.128906 4.6875 -3.660156 4.21875 -3.140625 L 1.90625 -0.59375 Z M 5.890625 -0.59375 "/></g></g><g style="fill:#fefbed;fill-opacity:1;"><g transform="translate(194.985326, 291.188798)"><path style="stroke:none" d="M 3.296875 0.09375 C 2.421875 0.09375 1.753906 -0.238281 1.296875 -0.90625 C 0.847656 -1.582031 0.625 -2.570312 0.625 -3.875 C 0.625 -5.175781 0.847656 -6.160156 1.296875 -6.828125 C 1.753906 -7.503906 2.421875 -7.84375 3.296875 -7.84375 C 4.171875 -7.84375 4.832031 -7.503906 5.28125 -6.828125 C 5.738281 -6.160156 5.96875 -5.179688 5.96875 -3.890625 C 5.96875 -2.585938 5.738281 -1.597656 5.28125 -0.921875 C 4.832031 -0.242188 4.171875 0.09375 3.296875 0.09375 Z M 3.296875 -0.515625 C 3.972656 -0.515625 4.46875 -0.785156 4.78125 -1.328125 C 5.101562 -1.878906 5.265625 -2.734375 5.265625 -3.890625 C 5.265625 -5.035156 5.101562 -5.878906 4.78125 -6.421875 C 4.46875 -6.960938 3.972656 -7.234375 3.296875 -7.234375 C 2.617188 -7.234375 2.117188 -6.960938 1.796875 -6.421875 C 1.484375 -5.878906 1.328125 -5.035156 1.328125 -3.890625 C 1.328125 -2.742188 1.488281 -1.894531 1.8125 -1.34375 C 2.132812 -0.789062 2.628906 -0.515625 3.296875 -0.515625 Z M 3.296875 -0.515625 "/></g></g><g style="fill:#fefbed;fill-opacity:1;"><g transform="translate(203.659638, 291.188798)"><path style="stroke:none" d="M 5.890625 -0.59375 L 5.890625 0 L 0.984375 0 L 0.984375 -0.5 L 3.75 -3.59375 C 4.132812 -4.03125 4.414062 -4.421875 4.59375 -4.765625 C 4.769531 -5.117188 4.859375 -5.46875 4.859375 -5.8125 C 4.859375 -6.269531 4.722656 -6.625 4.453125 -6.875 C 4.191406 -7.125 3.816406 -7.25 3.328125 -7.25 C 2.546875 -7.25 1.800781 -6.9375 1.09375 -6.3125 L 0.796875 -6.859375 C 1.109375 -7.148438 1.492188 -7.382812 1.953125 -7.5625 C 2.410156 -7.75 2.867188 -7.84375 3.328125 -7.84375 C 4.015625 -7.84375 4.554688 -7.664062 4.953125 -7.3125 C 5.347656 -6.957031 5.546875 -6.46875 5.546875 -5.84375 C 5.546875 -5.394531 5.441406 -4.960938 5.234375 -4.546875 C 5.023438 -4.128906 4.6875 -3.660156 4.21875 -3.140625 L 1.90625 -0.59375 Z M 5.890625 -0.59375 "/></g></g><g style="fill:#fefbed;fill-opacity:1;"><g transform="translate(212.33395, 291.188798)"><path style="stroke:none" d="M 6.15625 -2.34375 L 6.15625 -1.765625 L 4.96875 -1.765625 L 4.96875 0 L 4.28125 0 L 4.28125 -1.765625 L 0.609375 -1.765625 L 0.609375 -2.28125 L 4.40625 -7.75 L 4.96875 -7.75 L 4.96875 -2.34375 Z M 1.359375 -2.34375 L 4.28125 -2.34375 L 4.28125 -6.5625 Z M 1.359375 -2.34375 "/></g></g><g style="fill:#fefbed;fill-opacity:1;"><g transform="translate(221.014179, 291.188798)"><path style="stroke:none" d=""/></g></g><g clip-rule="nonzero" clip-path="url(#4c1b279804)"><path style=" stroke:none;fill-rule:nonzero;fill:#fff5e9;fill-opacity:1;" d="M 315.214844 187.496094 C 315.214844 187.855469 315.179688 188.214844 315.109375 188.566406 C 315.039062 188.921875 314.9375 189.265625 314.796875 189.601562 C 314.660156 189.933594 314.488281 190.25 314.289062 190.550781 C 314.089844 190.851562 313.859375 191.128906 313.605469 191.386719 C 313.351562 191.640625 313.070312 191.867188 312.769531 192.070312 C 312.472656 192.269531 312.152344 192.441406 311.820312 192.578125 C 311.488281 192.714844 311.140625 192.820312 310.789062 192.890625 C 310.433594 192.960938 310.074219 192.996094 309.714844 192.996094 C 309.351562 192.996094 308.996094 192.960938 308.640625 192.890625 C 308.285156 192.820312 307.941406 192.714844 307.609375 192.578125 C 307.273438 192.441406 306.957031 192.269531 306.65625 192.070312 C 306.359375 191.867188 306.078125 191.640625 305.824219 191.386719 C 305.570312 191.128906 305.339844 190.851562 305.140625 190.550781 C 304.9375 190.25 304.769531 189.933594 304.632812 189.601562 C 304.492188 189.265625 304.390625 188.921875 304.320312 188.566406 C 304.246094 188.214844 304.210938 187.855469 304.210938 187.496094 C 304.210938 187.132812 304.246094 186.777344 304.320312 186.421875 C 304.390625 186.066406 304.492188 185.722656 304.632812 185.390625 C 304.769531 185.054688 304.9375 184.738281 305.140625 184.4375 C 305.339844 184.136719 305.570312 183.859375 305.824219 183.605469 C 306.078125 183.347656 306.359375 183.121094 306.65625 182.921875 C 306.957031 182.71875 307.273438 182.550781 307.609375 182.410156 C 307.941406 182.273438 308.285156 182.167969 308.640625 182.097656 C 308.996094 182.027344 309.351562 181.992188 309.714844 181.992188 C 310.074219 181.992188 310.433594 182.027344 310.789062 182.097656 C 311.140625 182.167969 311.488281 182.273438 311.820312 182.410156 C 312.152344 182.550781 312.472656 182.71875 312.769531 182.921875 C 313.070312 183.121094 313.351562 183.347656 313.605469 183.605469 C 313.859375 183.859375 314.089844 184.136719 314.289062 184.4375 C 314.488281 184.738281 314.660156 185.054688 314.796875 185.390625 C 314.9375 185.722656 315.039062 186.066406 315.109375 186.421875 C 315.179688 186.777344 315.214844 187.132812 315.214844 187.496094 Z M 315.214844 187.496094 "/></g></g></svg>